{"title":"Housefull 3 (2016) 720p HEVC DvDrip AC3 5.1 Subs -DDR","uid":15600422,"size":2986784739,"categoryP":"video","categoryS":"hd___movies","magnet":"?xt=urn:btih:be58835465a3d0fa946dbaefbd896c0c63326265&amp;dn=Housefull+3+%282016%29+720p+HEVC+DvDrip+AC3+5.1+Subs+-DDR&amp;tr=udp%3A%2F%2Ftracker.leechers-paradise.org%3A6969&amp;tr=udp%3A%2F%2Fzer0day.ch%3A1337&amp;tr=udp%3A%2F%2Fopen.demonii.com%3A1337&amp;tr=udp%3A%2F%2Ftracker.coppersurfer.tk%3A6969&amp;tr=udp%3A%2F%2Fexodus.desync.com%3A6969","seeders":6,"leechers":3,"uploader":"SaM","files":3,"time":1471630839,"description":"** Housefull 3 **\r\n\r\n** 2016**\r\n\r\n** 720p / DvDRip / HEVC 10 Bits / AC3 5.1 **\r\n\r\n** Arabic &amp; English Subtitle(s) **\r\n\r\n\r\n\r\n[ SCREENS ]\r\n \nhttp://extraimago.com/image/w1L7 \nhttp://extraimago.com/image/w1Ls \nhttp://extraimago.com/image/w1Ln \nhttp://extraimago.com/image/w1Lj \nhttp://extraimago.com/image/w1LT \nhttp://extraimago.com/image/w1LN \nhttp://extraimago.com/image/w1L2 \nhttp://extraimago.com/image/w1Lw \nhttp://extraimago.com/image/w1La \nhttp://extraimago.com/image/w1L8 \nhttp://extraimago.com/image/w1yf \nhttp://extraimago.com/image/w1yW \nhttp://extraimago.com/image/w1yA \nhttp://extraimago.com/image/w1yv \nhttp://extraimago.com/image/w1yu \nhttp://extraimago.com/image/w1yV\r\n\r\n[ Info ]\r\nSource : DVD9 @ ICTV\r\nFormat : Matroska\r\nFile size : 2.76 GiB\r\nDuration : 2h 14mn\r\nOverall bit rate : 2 941 Kbps\r\n\r\nVideo\r\nFormat : HEVC\r\nFormat/Info : High Efficiency Video Coding\r\nFormat profile : Main   @Main\r\nCodec ID : V_MPEGH/ISO/HEVC\r\nDuration : 2h 14mn\r\nBit rate : 2 489 Kbps\r\nWidth : 1 280 pixels\r\nHeight : 544 pixels\r\nDisplay aspect ratio : 2.35:1\r\nFrame rate mode : Constant\r\nFrame rate : 23.976 (24000/1001) fps\r\ncolor space : YUV\r\nChroma subsampling : 4:2:0\r\nBit depth : 10 bits\r\nBits/(Pixel*Frame) : 0.149\r\nStream size : 2.34 GiB (85%)\r\n\r\nAudio\r\nFormat : AC-3\r\nFormat/Info : Audio Coding 3\r\nMode extension : CM (complete main)\r\nFormat settings, Endianness : Big\r\nCodec ID : A_AC3\r\nDuration : 2h 14mn\r\nBit rate mode : Constant\r\nBit rate : 448 Kbps\r\nChannel(s) : 6 channels\r\nChannel positions : Front: L C R, Side: L R, LFE\r\nSampling rate : 48.0 KHz\r\nFrame rate : 31.250 fps (1536 spf)\r\nCompression mode : Lossy\r\nStream size : 431 MiB (15%)\r\nLanguage : Hindi\r\nDefault : Yes\r\nForced : No\r\n\r\nText\r\nID : 3\r\nFormat : VobSub\r\nMuxing mode : zlib\r\nCodec ID : S_VOBSUB\r\nCodec ID/Info : Picture based subtitle format used on DVDs\r\nDuration : 2h 10mn\r\nBit rate : 1 483 bps\r\nCount of elements : 2047\r\nStream size : 1.38 MiB (0%)\r\nLanguage : English\r\nDefault : Yes\r\nForced : No\r\n\r\n\r\nChapters = YES","torrent":{"xt":"urn:btih:be58835465a3d0fa946dbaefbd896c0c63326265","amp;dn":"Housefull+3+%282016%29+720p+HEVC+DvDrip+AC3+5.1+Subs+-DDR","amp;tr":["udp%3A%2F%2Ftracker.leechers-paradise.org%3A6969","udp%3A%2F%2Fzer0day.ch%3A1337","udp%3A%2F%2Fopen.demonii.com%3A1337","udp%3A%2F%2Ftracker.coppersurfer.tk%3A6969","udp%3A%2F%2Fexodus.desync.com%3A6969"],"infoHash":"be58835465a3d0fa946dbaefbd896c0c63326265","infoHashBuffer":{"type":"Buffer","data":[190,88,131,84,101,163,208,250,148,109,186,239,189,137,108,12,99,50,98,101]},"announce":[],"urlList":[]}}